<svg width="150" height="150" viewBox="0 0 150 150" fill="none" xmlns="http://www.w3.org/2000/svg">
<path d="M133.066 24.0635C120.934 11.06 98.5434 17.5109 85.4749 25.4269C97.2719 20.6498 115.927 17.5109 126.181 27.0396C133.645 34.1976 127.857 47.3282 122.201 57.1876C124.446 62.4378 125.965 68.0696 126.677 73.9252C134.613 58.139 143.78 36.721 133.066 24.0635Z" fill="#F1F1F1"/>
<path d="M14.574 130.558C5.62307 118.796 12.2147 101.876 18.485 90.2966C9.84614 102.008 1.64794 119.768 10.3235 134.125C22.4693 153.284 48.9091 144.425 67.6281 134.725C61.7434 133.382 56.7722 131.143 52.7052 128.666C39.2007 136.404 23.4699 141.492 14.574 130.558Z" fill="#F1F1F1"/>
<path d="M150 81.1901C145.304 82.7265 142.444 85.8502 141.329 91.9194C139.8 86.2368 137.257 82.64 132.396 81.2817C136.789 79.5926 139.929 76.8098 141.145 71.4324C142.568 76.4995 145.3 79.8623 150 81.1901Z" fill="#F1F1F1"/>
<path d="M23.3736 112.518C21.0234 113.287 19.5959 114.843 19.0359 117.881C18.2739 115.037 17.0023 113.241 14.5695 112.559C16.7682 111.715 18.3381 110.326 18.9441 107.635C19.6555 110.168 21.0234 111.852 23.3736 112.518Z" fill="#F1F1F1"/>
<path d="M88.7845 137.727C85.3969 138.835 83.3359 141.084 82.5372 145.459C81.431 141.364 79.5995 138.773 76.0971 137.793C79.2598 136.577 81.5274 134.567 82.4041 130.691C83.4277 134.343 85.3969 136.77 88.7845 137.727Z" fill="#F1F1F1"/>
<path d="M74.2977 145.246C72.2138 145.926 70.9468 147.31 70.4511 150C69.7763 147.482 68.6471 145.888 66.4943 145.285C68.4406 144.537 69.8314 143.303 70.3731 140.919C71.0019 143.165 72.2138 144.656 74.2977 145.246Z" fill="#F1F1F1"/>
<path d="M49.4002 12.6422C45.9208 8.86228 42.3175 9.07595 38.3377 12.1233C41.2525 7.11729 41.1608 4.91445 38.0578 0C41.6749 3.19999 45.2919 3.88172 49.088 0.147555C45.8473 4.47695 46.2192 8.56213 49.4002 12.6422ZM11.3426 49.409C7.86315 45.6291 4.25981 45.8427 0.280076 48.8901C3.19488 43.8841 3.103 41.6812 0 36.7668C3.61711 39.9668 7.23424 40.6485 11.035 36.9143C7.78966 41.2386 8.16152 45.3238 11.3426 49.409ZM23.6856 22.0692C20.2062 18.2893 16.6029 18.508 12.6232 21.5503C15.538 16.5443 15.4462 14.3414 12.3432 9.42698C15.9603 12.627 19.5774 13.3087 23.3736 9.57453C20.1328 13.9039 20.5046 17.9891 23.6856 22.0692ZM13.0226 50.6503C19.1138 50.0653 25.0077 49.5006 30.9934 48.9257C32.0629 48.824 32.7652 47.6335 32.4163 46.5092C30.2038 39.3207 28.0051 32.183 25.7421 24.8368C32.0766 28.2148 38.2368 31.5013 44.4657 34.8234C45.3746 35.3118 46.4625 34.7166 46.669 33.6228C47.9038 27.0854 49.1248 20.6142 50.3871 13.9446C51.2501 15.4657 51.9937 16.7682 52.7327 18.0807C56.0836 24.0432 59.4207 30.0158 62.7945 35.963C63.2214 36.7159 63.2168 37.1127 62.5742 37.7436C52.6363 47.4606 42.7306 57.2131 32.8156 66.9555L32.8111 66.9657C32.4117 67.3574 31.815 67.3727 31.4019 67.0013C25.3198 61.5934 19.2561 56.1956 13.0226 50.6503ZM76.983 28.3166C77.7633 28.3166 78.406 29.0237 78.406 29.8937C78.406 30.7636 77.7633 31.4708 76.983 31.4708C76.1981 31.4708 75.5554 30.7636 75.5554 29.8937C75.5554 29.0237 76.1981 28.3166 76.983 28.3166ZM24.1998 83.7033C23.4149 83.7033 22.7768 82.9961 22.7768 82.1262C22.7768 81.2562 23.4149 80.5491 24.1998 80.5491C24.9847 80.5491 25.6228 81.2562 25.6228 82.1262C25.6228 82.9961 24.9847 83.7033 24.1998 83.7033ZM26.0129 77.9698C25.4621 77.6747 24.8516 77.5068 24.1998 77.5068C21.9001 77.5068 20.0318 79.5774 20.0318 82.1262C20.0318 84.675 21.9001 86.7456 24.1998 86.7456C26.4995 86.7456 28.3677 84.675 28.3677 82.1262C28.3677 81.6022 28.2851 81.0985 28.1382 80.6254L75.4039 34.1671C75.8905 34.3909 76.423 34.5131 76.983 34.5131C79.2781 34.5131 81.1509 32.4425 81.1509 29.8937C81.1509 27.3449 79.2781 25.2743 76.983 25.2743C74.6833 25.2743 72.8104 27.3449 72.8104 29.8937C72.8104 30.5194 72.9252 31.1146 73.1272 31.659L26.0129 77.9698Z" fill="#F1F1F1"/>
<path d="M119.461 34.9557C119.461 36.0393 118.667 36.9194 117.689 36.9194C116.712 36.9194 115.917 36.0393 115.917 34.9557C115.917 33.872 116.712 32.9919 117.689 32.9919C118.667 32.9919 119.461 33.872 119.461 34.9557Z" fill="#F1F1F1"/>
<path d="M146.456 64.6051C146.456 65.353 145.91 65.9533 145.24 65.9533C144.565 65.9533 144.024 65.353 144.024 64.6051C144.024 63.8624 144.565 63.257 145.24 63.257C145.91 63.257 146.456 63.8624 146.456 64.6051Z" fill="#F1F1F1"/>
<path d="M18.9716 125.227C18.9716 125.975 18.4253 126.575 17.7551 126.575C17.0804 126.575 16.5387 125.975 16.5387 125.227C16.5387 124.484 17.0804 123.879 17.7551 123.879C18.4253 123.879 18.9716 124.484 18.9716 125.227Z" fill="#F1F1F1"/>
<path d="M10.1491 89.0248C10.1491 90.4747 9.08872 91.6499 7.7805 91.6499C6.47228 91.6499 5.41196 90.4747 5.41196 89.0248C5.41196 87.5749 6.47228 86.3996 7.7805 86.3996C9.08872 86.3996 10.1491 87.5749 10.1491 89.0248Z" fill="#F1F1F1"/>
<path d="M114.334 28.1436C114.334 28.8914 113.788 29.4917 113.117 29.4917C112.443 29.4917 111.896 28.8914 111.896 28.1436C111.896 27.4008 112.443 26.7954 113.117 26.7954C113.788 26.7954 114.334 27.4008 114.334 28.1436Z" fill="#F1F1F1"/>
<path d="M109.693 72.7602C108.931 69.9215 107.66 68.1256 105.227 67.4439C107.425 66.5994 108.995 65.2105 109.601 62.5193C110.313 65.0528 111.681 66.7367 114.031 67.3981C111.681 68.1663 110.253 69.7281 109.693 72.7602ZM105.204 39.4733V61.7002H105.121C97.584 61.7002 91.4744 54.8016 91.4744 46.2955C88.2107 44.7438 82.6749 42.7597 75.7528 42.7801L59.8293 58.8766V66.5485C59.8293 70.6235 62.7533 73.9252 66.3658 73.9252H92.1904L105.204 88.9179V123.879C116.551 114.106 123.854 98.8333 123.854 81.6734C123.854 64.5135 116.551 49.2462 105.204 39.4733Z" fill="#F1F1F1"/>
<path d="M80.9948 107.238C80.6551 107.573 80.1365 107.538 79.8335 107.161C79.5352 106.79 79.5627 106.21 79.9024 105.879C80.2421 105.544 80.7607 105.579 81.0637 105.956C81.362 106.332 81.3345 106.907 80.9948 107.238ZM76.0971 114.721C75.1148 114.721 74.3253 113.841 74.3253 112.758C74.3253 111.674 75.1148 110.794 76.0971 110.794C77.0748 110.794 77.8689 111.674 77.8689 112.758C77.8689 113.841 77.0748 114.721 76.0971 114.721ZM36.621 93.2218C36.2813 93.5525 35.8132 93.583 35.5791 93.288C35.3404 92.9929 35.423 92.4791 35.7627 92.1484C36.1024 91.8126 36.5705 91.7821 36.8046 92.0822C37.0433 92.3773 36.9607 92.8861 36.621 93.2218ZM86.8153 89.4215H59.4116L46.0953 73.0502V72.7602L28.1658 90.8918C30.259 104.246 36.8276 115.896 46.0953 123.879V101.652H46.1779C53.715 101.652 59.8293 108.545 59.8293 117.051C65.3284 119.671 77.2905 123.528 91.4744 116.899V94.6768C91.4744 91.777 89.3858 89.4215 86.8153 89.4215Z" fill="#F1F1F1"/>
<path d="M84.7588 17.9891C84.7588 18.7319 84.2126 19.3373 83.5378 19.3373C82.8677 19.3373 82.3214 18.7319 82.3214 17.9891C82.3214 17.2413 82.8677 16.6409 83.5378 16.6409C84.2126 16.6409 84.7588 17.2413 84.7588 17.9891Z" fill="#F1F1F1"/>
</svg>
